<svg width="256" height="79" viewBox="0 0 256 79" fill="none" xmlns="http://www.w3.org/2000/svg">
<g style="mix-blend-mode:overlay" opacity="0.6">
<path d="M83.2134 17C86.6783 17 86.9904 17.0099 87.1607 17.0879C87.2578 17.1317 87.3404 17.1856 87.3404 17.21C87.3408 17.2292 87.3651 17.2432 87.3892 17.2432C87.4138 17.2435 87.4824 17.2874 87.5357 17.3408C87.5891 17.3944 87.6324 17.463 87.6324 17.4873C87.6324 17.5165 87.6472 17.5361 87.6666 17.5361C87.691 17.5368 87.7451 17.6141 87.7935 17.7158C87.8713 17.8717 87.8813 17.9796 87.857 18.4131C87.8424 18.6956 87.8032 19.1 87.7642 19.3145C87.7302 19.5285 87.6861 19.7379 87.6714 19.7773C87.6568 19.8163 87.6078 20.0797 87.564 20.3623C87.5202 20.6449 87.4869 20.923 87.4869 20.9863C87.4868 21.0443 87.4622 21.0922 87.438 21.0928C87.4137 21.0928 87.3745 21.2641 87.3599 21.4688C87.3453 21.6784 87.2875 22.0877 87.2388 22.3848C87.1853 22.682 87.1069 23.106 87.0679 23.335C87.0242 23.5639 86.9702 23.8704 86.9507 24.0166C86.9264 24.1628 86.8735 24.4702 86.8345 24.6992C86.7908 24.9281 86.7368 25.2346 86.7076 25.3809C86.6833 25.527 86.6156 25.9364 86.5621 26.2822C86.5037 26.6281 86.4399 27.0285 86.4156 27.1602C86.3912 27.2919 86.3471 27.569 86.3179 27.7686C86.2888 27.9678 86.2456 28.1772 86.2213 28.2314C86.1969 28.285 86.1675 28.4417 86.1578 28.5732C86.1431 28.705 86.1039 29.0017 86.0699 29.2305C86.0361 29.4573 85.9931 29.6511 85.9781 29.6689C85.9635 29.6836 85.9243 29.8688 85.8902 30.083C85.8561 30.2974 85.8022 30.688 85.7681 30.9512C85.7392 31.2069 85.6959 31.42 85.6714 31.4238C85.652 31.4238 85.6373 31.5159 85.6373 31.6328C85.6324 31.7449 85.603 31.9789 85.564 32.1543C85.5251 32.3297 85.4957 32.5441 85.4908 32.6318C85.4908 32.7145 85.4711 32.8261 85.4468 32.875C85.4176 32.9189 85.3745 33.1244 85.3453 33.3242C85.3112 33.5238 85.2671 33.801 85.2427 33.9326C85.2184 34.069 85.1743 34.3618 85.1402 34.5908C85.1062 34.8193 85.0631 35.0239 85.0484 35.0537C85.0289 35.0829 85.0044 35.3072 84.9849 35.5557C84.9704 35.7984 84.9359 36.0025 84.9068 36.0039C84.8825 36.0042 84.8433 36.1744 84.8287 36.3838C84.8141 36.5874 84.7808 36.7769 84.7613 36.8076C84.7418 36.8369 84.7124 36.969 84.6978 37.1006C84.688 37.2371 84.6489 37.4948 84.6197 37.6846C84.5905 37.8745 84.5415 38.1036 84.5172 38.1963C84.4928 38.2889 84.435 38.6208 84.3912 38.9277C84.3475 39.234 84.2935 39.5306 84.2691 39.585C84.2496 39.6386 84.2055 39.8775 84.1763 40.1211C84.1471 40.3646 84.0942 40.7347 84.0601 40.9492C84.0262 41.1628 83.987 41.372 83.9722 41.4121C83.9576 41.4511 83.9086 41.7487 83.8599 42.0703C83.8161 42.3917 83.7583 42.6991 83.7388 42.7529C83.7145 42.807 83.6703 43.0262 83.6412 43.2402C83.6071 43.4544 83.5728 43.7268 83.5582 43.8486C83.5484 43.9704 83.52 44.1123 83.4957 44.166C83.4713 44.2201 83.4173 44.5265 83.3736 44.8477C83.3298 45.1689 83.2759 45.5439 83.2515 45.6758C83.2272 45.8122 83.1742 46.1148 83.1304 46.3584C83.0866 46.602 83.0278 46.9094 83.0084 47.041C82.984 47.1775 82.9457 47.4499 82.9117 47.6494C82.8826 47.8484 82.8433 48.0478 82.8238 48.0879C82.8092 48.1269 82.7651 48.3561 82.7359 48.5996C82.7018 48.8431 82.6479 49.2329 82.6138 49.4766C82.58 49.7181 82.5369 49.9218 82.5172 49.9395C82.5025 49.9541 82.4732 50.0765 82.4586 50.208C82.444 50.3444 82.4047 50.6364 82.3707 50.8652C82.3367 51.0935 82.2936 51.2889 82.2789 51.3047C82.2643 51.3194 82.2201 51.5143 82.1861 51.7432C82.1521 51.972 82.1128 52.2688 82.0982 52.4004C82.0836 52.5366 82.0542 52.6686 82.0347 52.6934C82.0153 52.719 81.9867 52.8743 81.9673 53.0342C81.9479 53.195 81.8988 53.5553 81.855 53.8379C81.8161 54.1203 81.7622 54.3934 81.7427 54.4473C81.7184 54.5012 81.6752 54.7303 81.6461 54.959L81.6382 55.0098C81.6055 55.2299 81.5661 55.494 81.5435 55.6162C81.524 55.7526 81.4701 56.0454 81.4263 56.2744C81.3825 56.5034 81.3296 56.801 81.3052 56.9326C81.2809 57.0693 81.2171 57.4737 81.1588 57.834C81.1052 58.1945 81.0376 58.6038 81.0132 58.7354C80.9889 58.8717 80.9398 59.1637 80.8961 59.3926C80.8572 59.6213 80.8131 59.8601 80.7984 59.9287C80.7838 59.9969 80.7358 60.2701 80.6968 60.5381C80.6433 60.8742 80.5695 61.1177 80.4625 61.3271C80.375 61.4975 80.2582 61.6638 80.1949 61.6934C80.137 61.7273 80.0889 61.7705 80.0884 61.7949C80.0884 61.8144 80.0295 61.8438 79.9517 61.8584C79.879 61.873 79.8065 61.9122 79.7867 61.9414C79.7575 61.9853 76.8998 62 68.0269 62C59.5076 62 56.2914 61.9851 56.233 61.9463C56.1942 61.9172 56.1115 61.878 56.0435 61.8633C55.9754 61.8487 55.8381 61.7566 55.7359 61.6641C55.6386 61.5666 55.5562 61.454 55.5562 61.415C55.5562 61.3763 55.5413 61.3421 55.5172 61.3418C55.4976 61.3413 55.4545 61.2737 55.4254 61.1865C55.3913 61.0989 55.3472 60.8892 55.3277 60.7188C55.3035 60.5538 55.2739 60.4172 55.2496 60.416C55.2302 60.4158 55.2154 60.3433 55.2154 60.2607C55.2154 60.1731 55.186 59.9243 55.147 59.71C55.1081 59.4957 55.065 59.2421 55.0455 59.1494C55.0309 59.0568 54.9867 58.8033 54.9429 58.5889C54.904 58.3744 54.8452 57.9847 54.8111 57.7217C54.7821 57.4652 54.7388 57.2519 54.7144 57.249C54.6949 57.249 54.6802 57.1756 54.6802 57.0928C54.6802 57.0049 54.6557 56.8101 54.6265 56.6641C54.5973 56.5179 54.5532 56.274 54.5338 56.1279C54.5094 55.9817 54.4564 55.6751 54.4127 55.4463C54.3737 55.2173 54.3149 54.9245 54.2955 54.7881C54.2711 54.6565 54.2221 54.3695 54.1929 54.1553C54.159 53.9416 54.1158 53.7225 54.0963 53.668C54.0719 53.6144 54.0327 53.3754 54.0035 53.1318C53.9743 52.8882 53.9164 52.5171 53.8775 52.3027C53.8386 52.0883 53.7748 51.7181 53.731 51.4746C53.6921 51.2311 53.6382 50.9099 53.6187 50.7539C53.5994 50.6043 53.5706 50.4779 53.5464 50.4756C53.527 50.4756 53.5123 50.3932 53.5123 50.2959C53.5123 50.1936 53.4779 49.9595 53.439 49.7695C53.4001 49.5797 53.3659 49.3702 53.3658 49.2969C53.3658 49.219 53.3461 49.1211 53.3218 49.0771C53.2974 49.0275 53.2395 48.7162 53.191 48.3809C53.1472 48.0447 53.0982 47.6687 53.0884 47.542C53.0835 47.4112 53.0493 47.3094 53.025 47.3086C52.9959 47.3081 52.9761 47.23 52.9761 47.1377C52.9761 47.0449 52.9476 46.806 52.9088 46.6162C52.8699 46.4217 52.8307 46.1837 52.8209 46.0908C52.816 45.9985 52.7963 45.9106 52.7769 45.8955C52.7623 45.8808 52.7231 45.6957 52.689 45.4814C52.6598 45.2671 52.6118 44.9694 52.5875 44.8232C52.568 44.6769 52.4994 44.2677 52.441 43.9219C52.3826 43.576 52.315 43.1814 52.2955 43.0449C52.2711 42.9134 52.227 42.6255 52.1978 42.4111C52.1638 42.197 52.1196 41.9776 52.1002 41.9238C52.0759 41.8699 52.0464 41.7191 52.0318 41.583C52.0123 41.4514 51.9692 41.1635 51.9302 40.9492C51.8913 40.7348 51.8275 40.3646 51.7838 40.1211C51.7448 39.8775 51.687 39.4877 51.6529 39.2441C51.6238 39.0013 51.5798 38.7971 51.565 38.7812C51.5456 38.7666 51.5161 38.6499 51.5015 38.5137C51.4869 38.3821 51.4477 38.0845 51.4136 37.8555C51.3798 37.628 51.3367 37.4339 51.3218 37.417C51.3072 37.4024 51.2631 37.1928 51.2291 36.9541C51.195 36.7154 51.1558 36.4177 51.1461 36.2959C51.1315 36.1744 51.103 36.0333 51.0787 35.9795C51.0543 35.9259 51.0004 35.6185 50.9566 35.2969C50.9079 34.9754 50.854 34.6052 50.8297 34.4688C50.8102 34.3371 50.7572 34.0395 50.7134 33.8105C50.6697 33.5817 50.6157 33.2897 50.5914 33.1533C50.567 33.0218 50.519 32.7046 50.4849 32.4561C50.4511 32.2092 50.4068 32.0103 50.3824 32.0078C50.3629 32.0078 50.3482 31.9352 50.3482 31.8525C50.3482 31.7649 50.3188 31.5259 50.2798 31.3262C50.2409 31.1264 50.1968 30.8092 50.1773 30.6191C50.1579 30.4297 50.1293 30.2594 50.105 30.2295C50.0856 30.2003 50.0562 30.0592 50.0367 29.9131C50.0172 29.7669 49.9731 29.4791 49.939 29.2793C49.905 29.08 49.8668 28.8804 49.8521 28.8408C49.8375 28.8018 49.7934 28.5825 49.7642 28.3535C49.7302 28.1245 49.691 27.8514 49.6812 27.7441C49.6715 27.6371 49.647 27.5156 49.6324 27.4766C49.6129 27.4376 49.5746 27.2378 49.5357 27.0381L49.4752 26.6436C49.4539 26.4934 49.4331 26.3365 49.4185 26.21C49.3894 25.9572 49.3551 25.7138 49.3404 25.6738C49.3209 25.6349 49.2778 25.4252 49.2437 25.2109C49.2048 24.9966 49.1558 24.7136 49.1314 24.5771C49.1071 24.4456 49.0531 24.1333 49.0093 23.8945C48.9704 23.6559 48.9126 23.3346 48.8931 23.1885C48.8688 23.0423 48.8247 22.7985 48.7955 22.6523C48.7663 22.5062 48.7418 22.3114 48.7418 22.2285C48.7418 22.1412 48.7269 22.068 48.7027 22.0674C48.6831 22.0653 48.64 21.8517 48.6109 21.5947C48.5768 21.3316 48.5131 20.9321 48.4742 20.7031C48.4304 20.4744 48.3814 20.1923 48.357 20.0703C48.3327 19.9485 48.2895 19.6508 48.2505 19.4121C48.2166 19.1742 48.1676 18.9651 48.148 18.9492C48.1237 18.9346 48.0992 18.6761 48.0943 18.374C48.0894 18.0525 48.1042 17.8086 48.1334 17.7891C48.1579 17.7691 48.2265 17.6723 48.2798 17.5703C48.3332 17.4683 48.3911 17.3901 48.4156 17.3896C48.4355 17.3891 48.5089 17.3354 48.5718 17.2676C48.6401 17.1995 48.7667 17.117 48.8541 17.0781H48.8492C48.9863 17.0198 49.6438 17.0049 56.5298 17L56.7779 17.1367C56.9141 17.2098 57.0848 17.3313 57.1578 17.4141C57.2307 17.4969 57.323 17.6576 57.3716 17.7793C57.4154 17.9011 57.4547 18.0774 57.4547 18.1699C57.4547 18.2624 57.4694 18.3594 57.4888 18.3789C57.5084 18.404 57.5564 18.5987 57.5904 18.8174C57.6245 19.0367 57.6735 19.3294 57.6978 19.4609L57.7017 19.4805C57.7286 19.6313 57.7932 19.9926 57.8443 20.3135C57.8978 20.6495 57.9606 21.0441 57.9898 21.1904C58.0141 21.3366 58.0583 21.6147 58.0875 21.7998C58.1167 21.9849 58.1608 22.1847 58.1851 22.2383C58.2094 22.2921 58.2379 22.4332 58.2525 22.5547C58.2671 22.6765 58.3063 22.9644 58.3404 23.2031C58.3745 23.437 58.4186 23.627 58.438 23.627C58.4621 23.6281 58.4771 23.706 58.4771 23.7979C58.4772 23.8906 58.5056 24.1149 58.5445 24.2998C58.5834 24.4801 58.6276 24.7817 58.647 24.9668C58.6665 25.1516 58.7008 25.3267 58.7203 25.3564C58.7397 25.3859 58.7692 25.5034 58.7789 25.625C58.7935 25.7469 58.8317 26.0192 58.8609 26.2334C58.8949 26.4472 58.939 26.6664 58.9586 26.7207C58.9829 26.7746 59.0369 27.0477 59.0806 27.3301C59.1244 27.6127 59.1578 27.8957 59.1578 27.9639C59.1578 28.0316 59.1727 28.104 59.192 28.124C59.2115 28.149 59.2605 28.3348 59.2896 28.5391C59.3237 28.7438 59.3776 29.0993 59.4068 29.3281C59.4311 29.5571 59.4743 29.7862 59.4986 29.8398C59.5229 29.8936 59.5671 30.1129 59.5963 30.3271C59.6303 30.5415 59.6744 30.8147 59.6939 30.9365C59.7183 31.0586 59.7713 31.3554 59.815 31.5938C59.8588 31.8325 59.9127 32.1448 59.9322 32.2764C59.9565 32.4129 60.0056 32.7048 60.0396 32.9336C60.0735 33.1612 60.1167 33.3554 60.1363 33.3721C60.151 33.388 60.1902 33.607 60.2242 33.8594C60.2534 34.1128 60.3122 34.5083 60.356 34.7373C60.3949 34.9661 60.4479 35.2483 60.4673 35.3701C60.4917 35.492 60.5358 35.7651 60.5699 35.9795C60.604 36.1938 60.6481 36.4132 60.6675 36.4668C60.6918 36.5207 60.7203 36.6617 60.73 36.7832C60.7446 36.905 60.7838 37.1684 60.813 37.3682C60.8471 37.5679 60.8912 37.7775 60.9107 37.8311C60.9302 37.8852 60.988 38.2022 61.0318 38.5381L61.0338 38.5479C61.082 38.8813 61.1347 39.2456 61.1588 39.3662C61.1783 39.4882 61.2322 39.78 61.2759 40.0234C61.3197 40.2671 61.3727 40.5598 61.397 40.6816C61.4214 40.8035 61.4753 41.0962 61.5191 41.3398C61.558 41.5833 61.6159 41.8899 61.6402 42.0215C61.6645 42.1579 61.7332 42.5526 61.7867 42.8984C61.845 43.2439 61.9078 43.6286 61.9322 43.751C61.9517 43.8728 61.9958 44.146 62.0298 44.3604C62.0639 44.5746 62.108 44.7939 62.1275 44.8477C62.147 44.9015 62.2048 45.2089 62.2486 45.5303C62.2972 45.8513 62.3511 46.1576 62.3707 46.2119C62.3901 46.2656 62.4343 46.4606 62.4634 46.6504C62.4975 46.8404 62.5456 47.2164 62.5797 47.4941C62.6137 47.7667 62.653 47.991 62.6724 47.9912C62.6966 47.9917 62.7115 48.0494 62.7115 48.127C62.7115 48.2 62.7507 48.4047 62.7994 48.5801C62.8432 48.7603 62.8961 48.9268 62.9205 48.9463C62.9398 48.9707 62.9546 49.0188 62.9547 49.0527C62.9547 49.082 62.989 49.1945 63.0328 49.2969C63.0766 49.3943 63.1492 49.555 63.1929 49.6475C63.2367 49.74 63.2858 49.8282 63.3004 49.8428C63.3198 49.8579 63.3494 49.9206 63.3687 49.9883C63.3882 50.0565 63.4225 50.1202 63.4371 50.1348C63.4571 50.1505 63.5247 50.2481 63.5923 50.3545C63.6557 50.4618 63.7921 50.6469 63.899 50.7686C64.0012 50.8904 64.1473 51.0608 64.2252 51.1484C64.3022 51.2304 64.3747 51.3033 64.3902 51.3047C64.4054 51.3053 64.469 51.3532 64.5318 51.416C64.595 51.4744 64.6872 51.5577 64.7359 51.5967C64.7895 51.6406 64.9072 51.7189 64.9996 51.7676C65.0918 51.8211 65.1892 51.8888 65.2183 51.918C65.2429 51.9472 65.3399 52.006 65.4273 52.04C65.51 52.079 65.5836 52.1231 65.5836 52.1475C65.5839 52.1571 65.6001 52.1685 65.6265 52.1787L65.8316 52.2334C65.8579 52.2442 65.8751 52.2566 65.8755 52.2686C65.8755 52.288 65.9677 52.3272 66.0797 52.3613C66.1965 52.3906 66.4202 52.4542 66.5806 52.498C66.7413 52.5419 66.9952 52.6006 67.1412 52.6201C67.2875 52.6445 67.6033 52.6788 67.8463 52.6934C68.1429 52.7128 68.4256 52.6981 68.7222 52.6494C68.9654 52.6104 69.2724 52.5468 69.4136 52.5127C69.5497 52.4786 69.6811 52.4345 69.7007 52.415C69.7203 52.3908 69.7791 52.376 69.8277 52.376C69.8768 52.3757 70.0277 52.3269 70.1588 52.2686C70.2943 52.2055 70.4012 52.1427 70.4019 52.123C70.4019 52.0987 70.4362 52.084 70.4752 52.084C70.5144 52.0836 70.6115 52.0446 70.6939 52.001C70.7717 51.9523 70.8404 51.8984 70.8404 51.8789C70.8406 51.8548 70.8691 51.84 70.898 51.8398C70.9324 51.8394 71.0402 51.772 71.1324 51.6895C71.2247 51.6116 71.3121 51.5479 71.3267 51.5479C71.3426 51.5465 71.4591 51.445 71.5943 51.3145C71.7257 51.1878 71.9355 50.9733 72.0523 50.8418C72.1642 50.7054 72.2858 50.5487 72.3199 50.4854C72.3491 50.4271 72.3883 50.3779 72.4078 50.3779C72.4316 50.3772 72.4458 50.3441 72.4459 50.3057C72.4459 50.2668 72.4704 50.2326 72.4947 50.2324C72.513 50.232 72.5449 50.1934 72.5699 50.1416L72.6148 50.0303C72.6399 49.9784 72.6718 49.9395 72.69 49.9395C72.714 49.9388 72.7377 49.9056 72.7379 49.8672C72.7379 49.8282 72.7918 49.6911 72.855 49.5645C72.9183 49.433 73.0056 49.2478 73.0494 49.1504C73.093 49.0484 73.1273 48.9319 73.1275 48.8926C73.1275 48.8537 73.1423 48.8146 73.1617 48.8096C73.1861 48.7988 73.2401 48.6433 73.2838 48.4541C73.3324 48.2641 73.3854 47.9664 73.4048 47.7812C73.4292 47.6012 73.4586 47.4554 73.4781 47.4551C73.5022 47.4543 73.5172 47.3616 73.5172 47.25C73.5172 47.133 73.5515 46.9088 73.5904 46.748C73.6293 46.5873 73.6578 46.363 73.6627 46.251C73.6627 46.1348 73.6776 46.0431 73.6968 46.042C73.7212 46.0404 73.7655 45.8509 73.7994 45.6182L73.8072 45.5723C73.8447 45.3424 73.8885 45.0732 73.9068 44.9453C73.9311 44.8137 73.9841 44.5063 74.0279 44.2627C74.0717 44.019 74.1355 43.6293 74.1744 43.3857C74.2055 43.1633 74.2526 42.8556 74.2828 42.6592L74.2906 42.6064C74.3198 42.4164 74.3688 42.1873 74.3931 42.0947C74.4175 42.0021 74.4763 41.671 74.5201 41.3643C74.5638 41.0578 74.6168 40.7652 74.6412 40.7207C74.6655 40.6719 74.6851 40.5593 74.6851 40.4766C74.6901 40.3886 74.7195 40.1742 74.7584 39.999C74.7972 39.8237 74.8267 39.5993 74.8316 39.502C74.8316 39.3998 74.8463 39.3174 74.8658 39.3174C74.8902 39.3136 74.9287 39.1151 74.9625 38.8691L74.9664 38.8389C75.0005 38.59 75.0516 38.222 75.0797 38.002C75.1137 37.773 75.1578 37.5782 75.1724 37.5635C75.1872 37.5476 75.2303 37.3384 75.2642 37.1006C75.295 36.8852 75.33 36.6295 75.3472 36.5029L75.3521 36.4668C75.3618 36.3596 75.3863 36.2372 75.4009 36.1982C75.4205 36.158 75.4647 35.9587 75.4986 35.7598C75.5326 35.5602 75.5758 35.2878 75.5904 35.1514C75.605 35.0198 75.6295 34.873 75.649 34.834C75.6638 34.7935 75.7177 34.4875 75.7662 34.1523C75.8197 33.8165 75.8775 33.4366 75.9019 33.2998L75.9058 33.2764C75.9317 33.1365 75.982 32.8687 76.0142 32.666C76.0483 32.4516 76.0924 32.2421 76.107 32.2031C76.1264 32.1639 76.15 32.0326 76.1597 31.9111C76.1743 31.7893 76.2136 31.5063 76.2476 31.2773C76.2817 31.0483 76.3258 30.8535 76.3453 30.8389C76.3599 30.8236 76.3893 30.7063 76.4039 30.5703C76.4185 30.4384 76.4666 30.0879 76.5103 29.791C76.5493 29.4938 76.6081 29.1766 76.6324 29.084C76.6568 28.9907 76.7098 28.6599 76.7584 28.3535C76.8022 28.0465 76.8561 27.7489 76.8755 27.6953C76.8999 27.6409 76.9441 27.412 76.9732 27.1836C77.0072 26.9548 77.0504 26.6726 77.0748 26.5508C77.0991 26.4289 77.1628 26.0441 77.2164 25.6982C77.2699 25.3523 77.3287 24.9665 77.3433 24.8447C77.3579 24.7231 77.3864 24.5819 77.4107 24.5283C77.4302 24.4746 77.4743 24.2553 77.5084 24.041C77.5424 23.8266 77.5866 23.5436 77.6109 23.4072C77.6304 23.2754 77.6834 22.9787 77.7271 22.75C77.7709 22.521 77.8248 22.2136 77.8492 22.0674C77.8736 21.9209 77.9412 21.5166 77.9947 21.166C78.0482 20.8152 78.1168 20.4255 78.1412 20.2891C78.1607 20.1574 78.2194 19.8452 78.2632 19.6064C78.307 19.3679 78.36 19.071 78.3795 18.9492C78.4038 18.8274 78.4479 18.5395 78.4869 18.3008C78.5258 18.067 78.5651 17.877 78.5797 17.877C78.5943 17.8748 78.6181 17.8119 78.6373 17.7305C78.6618 17.6524 78.7696 17.4917 78.8814 17.375C78.9981 17.2631 79.1728 17.1318 79.2701 17.083C79.4405 17.0052 79.769 17 83.2134 17ZM110.276 17.0049C119.295 17 123.846 17.0147 123.846 17.0488C123.846 17.078 123.9 17.1075 123.968 17.1221C124.037 17.1371 124.163 17.2095 124.246 17.292C124.333 17.3699 124.416 17.4384 124.43 17.4385C124.445 17.4354 124.504 17.5634 124.673 17.999L124.664 39.585V39.7803C124.649 60.7412 124.649 61.1762 124.557 61.3418C124.504 61.4342 124.44 61.5271 124.411 61.5469C124.384 61.5605 124.307 61.6233 124.23 61.6865L124.211 61.7031C124.129 61.771 124.022 61.8433 123.968 61.8584C123.915 61.8778 123.856 61.9171 123.836 61.9463C123.812 61.9853 120.94 62 113.176 62C105.185 62 102.505 61.9852 102.356 61.9414C102.249 61.9122 101.967 61.8583 101.724 61.8291C101.481 61.7951 101.189 61.752 101.067 61.7324C100.945 61.7081 100.706 61.6591 100.531 61.6201C100.356 61.5812 100.098 61.5175 99.9566 61.4834C99.8156 61.4444 99.7037 61.4003 99.7037 61.3809C99.7034 61.3567 99.6641 61.3419 99.6158 61.3418C99.5716 61.3416 99.4206 61.3083 99.2896 61.2646C99.154 61.221 99.0039 61.1671 98.9498 61.1426C98.8963 61.1231 98.7304 61.0496 98.5845 60.9863C98.4386 60.923 98.2288 60.8398 98.1216 60.8008C98.0155 60.7621 97.9186 60.7238 97.9029 60.709C97.8883 60.6944 97.7812 60.6404 97.6597 60.5869C97.5383 60.5334 97.4119 60.4648 97.3775 60.4307C97.3483 60.3966 97.2404 60.3388 97.148 60.3096C97.0562 60.2757 96.9791 60.2365 96.9781 60.2217C96.9781 60.2071 96.8947 60.1532 96.7974 60.0996C96.6951 60.0459 96.4763 59.9097 96.3062 59.7979C96.1418 59.6817 95.9963 59.5891 95.98 59.5879C95.9653 59.5877 95.9073 59.5485 95.8492 59.5049C95.7957 59.4562 95.7074 59.3789 95.6539 59.335C95.6057 59.2867 95.5525 59.2478 95.5279 59.2471C95.5084 59.2471 95.4446 59.2079 95.3814 59.1641C95.3182 59.1154 95.2063 59.0223 95.1285 58.9541C95.0506 58.8859 94.8848 58.7448 94.7584 58.6377C94.6318 58.5305 94.3053 58.2191 94.0377 57.9512C93.7653 57.6785 93.4977 57.3907 93.439 57.3174C93.3806 57.2395 93.2541 57.0886 93.1617 56.9814C93.0645 56.8745 92.9724 56.762 92.9478 56.7373C92.9283 56.7129 92.836 56.5815 92.7437 56.4453C92.6564 56.3142 92.5635 56.1921 92.5484 56.1768C92.5283 56.161 92.4313 56.0203 92.3248 55.8604C92.2228 55.7 92.1111 55.5248 92.0767 55.4707C92.0427 55.4171 91.9887 55.3192 91.9547 55.251C91.9207 55.1831 91.8815 55.1204 91.8668 55.1055C91.8472 55.0907 91.7893 54.9781 91.731 54.8516C91.6728 54.7204 91.5993 54.6089 91.5748 54.5938C91.5504 54.5789 91.5024 54.4859 91.4732 54.3887C91.4393 54.2867 91.4 54.1938 91.3853 54.1787C91.3656 54.1633 91.3019 54.0372 91.2437 53.9014C91.1855 53.7604 91.1375 53.6096 91.1373 53.5703C91.1373 53.5315 91.1223 53.4974 91.0982 53.4971C91.0787 53.4971 91.0199 53.3559 90.9664 53.1807C90.9132 53.0064 90.8552 52.8651 90.8306 52.8633C90.8112 52.8633 90.7964 52.8339 90.7964 52.8047C90.7962 52.7699 90.762 52.6193 90.7183 52.4736C90.6747 52.3281 90.6265 52.1726 90.6021 52.1328C90.5826 52.0938 90.5483 51.9617 90.5289 51.8398C90.5094 51.7184 90.4751 51.5969 90.4556 51.5723C90.4362 51.5479 90.4019 51.3824 90.3873 51.207C90.3678 51.0319 90.3335 50.8469 90.3091 50.793C90.2848 50.7394 90.2368 50.4857 90.2027 50.2324C90.1638 49.9352 90.1392 49.2431 90.1441 48.3076C90.1441 47.1966 90.1638 46.7091 90.2271 46.2852C90.2709 45.9782 90.3337 45.5395 90.3677 45.3105C90.4018 45.0816 90.4459 44.872 90.4654 44.8477C90.4801 44.8225 90.5144 44.6818 90.5386 44.541C90.5581 44.3997 90.5924 44.2871 90.6119 44.2871C90.6357 44.2862 90.6499 44.2433 90.65 44.1904C90.65 44.1368 90.6843 43.9753 90.7281 43.8389C90.7719 43.6976 90.8258 43.537 90.8453 43.4834C90.8697 43.4295 90.9276 43.2591 90.9761 43.1035C91.0248 42.9525 91.0738 42.8252 91.0884 42.8252C91.1031 42.8242 91.1278 42.7569 91.1519 42.6699C91.1714 42.5823 91.2244 42.4167 91.273 42.3047C91.3168 42.1878 91.3707 42.0947 91.3902 42.0947C91.4143 42.0945 91.4293 42.0652 91.4293 42.0361C91.4295 42.0017 91.502 41.8314 91.5992 41.6562C91.6917 41.4808 91.8279 41.2174 91.9009 41.0713C91.9739 40.9252 92.0524 40.7988 92.0718 40.7939C92.096 40.784 92.1109 40.7448 92.1109 40.7061C92.1109 40.6672 92.1444 40.6231 92.1832 40.6084C92.222 40.5937 92.2564 40.5496 92.2564 40.5107C92.2565 40.472 92.2712 40.4386 92.2906 40.4385C92.3151 40.4378 92.374 40.3598 92.4273 40.2676C92.4806 40.1705 92.5385 40.0972 92.5582 40.0967C92.5823 40.0964 92.5972 40.0623 92.5972 40.0234C92.5973 39.9846 92.612 39.9512 92.6314 39.9512C92.6559 39.9507 92.7049 39.8921 92.7437 39.8193C92.7827 39.7414 92.8798 39.6091 92.9625 39.5166C93.0453 39.4239 93.2062 39.2388 93.3277 39.1074C93.4494 38.971 93.6583 38.7515 93.7896 38.6152C93.9259 38.4788 94.1014 38.3133 94.1793 38.2451C94.2613 38.1775 94.3385 38.1001 94.3492 38.0752C94.364 38.0458 94.4718 37.9479 94.5933 37.8555C94.7148 37.763 94.8219 37.6748 94.8365 37.6602C94.8524 37.6448 94.9442 37.5822 95.0406 37.5146C95.1427 37.4465 95.2261 37.3779 95.2261 37.3584C95.2262 37.3342 95.2547 37.3195 95.2838 37.3193C95.318 37.319 95.4014 37.2702 95.4693 37.207C95.5379 37.1435 95.7614 36.9926 95.9654 36.8662C96.1746 36.7396 96.3698 36.6377 96.3941 36.6377C96.4182 36.6375 96.4477 36.6227 96.4527 36.6035C96.4632 36.5788 96.7207 36.4369 97.0269 36.2812C97.3333 36.1303 97.6012 36.0039 97.6207 36.0039C97.6457 36.0035 97.7378 35.9694 97.8297 35.9307C97.9222 35.8917 98.0781 35.8231 98.1705 35.7842C98.2628 35.7453 98.3845 35.711 98.438 35.7109C98.4911 35.7109 98.5351 35.697 98.5357 35.6777C98.5357 35.6534 98.6573 35.5995 98.8033 35.5557C98.9492 35.507 99.1101 35.4678 99.1588 35.4678C99.2072 35.4677 99.2653 35.448 99.2896 35.4238C99.3191 35.3995 99.4457 35.3553 99.5816 35.3213C99.7131 35.292 99.9671 35.2441 100.142 35.2197C100.317 35.1954 100.501 35.1513 100.555 35.127C100.61 35.1025 100.926 35.0487 101.261 35.0098C101.597 34.966 101.966 34.917 102.088 34.9023C102.214 34.8877 104.715 34.8583 107.647 34.8389C111.814 34.8145 112.999 34.7957 113.05 34.752C113.08 34.7179 113.182 34.6885 113.269 34.6885C113.357 34.6884 113.44 34.6737 113.45 34.6543C113.46 34.63 113.547 34.6005 113.644 34.5811C113.741 34.5567 113.819 34.5224 113.819 34.4932C113.819 34.464 113.858 34.4444 113.902 34.4443C113.951 34.4441 114.087 34.3952 114.209 34.332C114.329 34.2739 114.436 34.2161 114.452 34.1963C114.467 34.1813 114.565 34.1079 114.671 34.0254C114.778 33.9474 114.925 33.8308 114.998 33.7627C115.071 33.6944 115.197 33.572 115.285 33.4941C115.368 33.416 115.527 33.226 115.634 33.0801C115.741 32.9341 115.849 32.8029 115.864 32.7881C115.884 32.7727 115.946 32.631 116.014 32.4707C116.077 32.31 116.146 32.1689 116.161 32.1543C116.18 32.1385 116.229 32.0075 116.272 31.8623C116.316 31.7161 116.35 31.5448 116.35 31.4863C116.35 31.4232 116.38 31.3701 116.409 31.3604C116.457 31.345 116.472 31.1299 116.472 30.498C116.472 29.8658 116.457 29.6501 116.409 29.6348C116.38 29.6298 116.35 29.5622 116.35 29.4893C116.35 29.4113 116.316 29.2448 116.272 29.1084C116.228 28.9768 116.146 28.7574 116.083 28.6211C116.024 28.4897 115.961 28.329 115.942 28.2705C115.931 28.2234 115.906 28.1839 115.884 28.167L115.843 28.1494C115.821 28.1332 115.795 28.0955 115.781 28.0518C115.761 27.9885 115.547 27.7396 115.309 27.4961C115.066 27.253 114.832 27.0389 114.793 27.0234C114.754 27.004 114.676 26.9599 114.623 26.9307C114.569 26.8967 114.515 26.8575 114.501 26.8428C114.486 26.828 114.413 26.7838 114.331 26.7402C114.248 26.6965 114.107 26.6436 114.014 26.624C113.922 26.6046 113.834 26.5703 113.819 26.5508C113.804 26.5313 113.649 26.4822 113.464 26.4385C113.284 26.3898 113.05 26.3555 112.943 26.3555C112.836 26.3554 112.749 26.3359 112.749 26.3066C112.734 26.2727 110.043 26.2578 104.766 26.2578C97.0546 26.2578 96.7782 26.2536 96.5738 26.166C96.4619 26.1173 96.2775 25.99 96.1656 25.8877C96.0196 25.7513 95.9457 25.6246 95.8873 25.4297C95.8192 25.1957 95.8101 24.7266 95.8101 21.6289C95.8101 18.5154 95.8191 18.062 95.8873 17.8281C95.9408 17.6528 96.0195 17.5115 96.1265 17.4141C96.2139 17.3314 96.3161 17.2442 96.355 17.2197C96.3941 17.1953 96.4863 17.1365 96.564 17.0879C96.7013 17.0149 97.7447 17.0098 110.276 17.0049ZM142.868 17.0146C151.001 17.0341 152.17 17.0441 152.662 17.1123C152.968 17.1561 153.363 17.2149 153.538 17.2393C153.713 17.2637 154.093 17.3312 154.389 17.3896C154.686 17.4432 155.013 17.5069 155.12 17.5312C155.227 17.5556 155.411 17.6046 155.533 17.6338C155.654 17.663 155.795 17.7061 155.849 17.7305C155.903 17.7501 156.088 17.8088 156.263 17.8574C156.438 17.9061 156.634 17.9747 156.702 18.0088C156.736 18.0258 156.776 18.0421 156.813 18.0537L156.974 18.0859C156.994 18.0945 157.011 18.1065 157.018 18.1211C157.033 18.1452 157.091 18.1699 157.149 18.1699C157.212 18.17 157.324 18.2033 157.407 18.2422C157.485 18.286 157.568 18.3154 157.587 18.3154C157.614 18.3165 157.769 18.3798 157.943 18.4619C158.117 18.5395 158.277 18.6079 158.307 18.6084C158.336 18.6085 158.361 18.6232 158.366 18.6426C158.377 18.6674 158.503 18.7398 158.648 18.8076C158.794 18.8807 159.024 18.9933 159.16 19.0518C159.291 19.1149 159.413 19.1777 159.427 19.1924C159.442 19.2072 159.534 19.2611 159.636 19.3145C159.738 19.368 159.816 19.4268 159.816 19.4463C159.816 19.4706 159.865 19.4952 159.923 19.5098C159.986 19.5196 160.079 19.5677 160.132 19.6162C160.186 19.6649 160.337 19.758 160.463 19.8262C160.59 19.8943 160.693 19.9629 160.693 19.9824C160.693 20.0065 160.727 20.0214 160.765 20.0215C160.804 20.0217 160.848 20.055 160.863 20.0938C160.877 20.1327 160.907 20.167 160.936 20.167C160.965 20.1673 161.018 20.1966 161.057 20.2256C161.101 20.2597 161.165 20.3185 161.204 20.3477C161.243 20.3817 161.292 20.4111 161.311 20.4111C161.336 20.4118 161.384 20.4458 161.422 20.4844C161.461 20.5234 161.564 20.6156 161.651 20.6934C161.734 20.7664 161.875 20.8791 161.967 20.9473C162.055 21.0157 162.342 21.2782 162.6 21.5312C162.858 21.7846 163.112 22.0284 163.161 22.0723C163.21 22.1164 163.356 22.2828 163.492 22.4336C163.623 22.5894 163.793 22.7795 163.866 22.8525C163.943 22.9302 164.002 23.0126 164.003 23.042C164.003 23.0663 164.065 23.1545 164.148 23.2373C164.225 23.3144 164.293 23.3915 164.294 23.4072C164.294 23.4218 164.387 23.5589 164.499 23.71C164.614 23.8645 164.721 23.995 164.742 24.002C164.766 24.0122 164.801 24.0952 164.83 24.1875C164.859 24.28 164.898 24.3574 164.927 24.3574C164.956 24.3577 164.976 24.392 164.976 24.4307C164.976 24.4696 164.991 24.5039 165.01 24.5039C165.035 24.5054 165.093 24.5882 165.146 24.6992C165.2 24.8063 165.258 24.8936 165.278 24.8936C165.302 24.8941 165.317 24.9282 165.317 24.9668C165.317 25.0057 165.345 25.0693 165.379 25.0986C165.414 25.1335 165.589 25.4594 165.769 25.8193C165.949 26.1799 166.095 26.5069 166.095 26.5361C166.095 26.5703 166.125 26.629 166.159 26.6582C166.188 26.6931 166.261 26.8437 166.309 26.9893C166.363 27.1354 166.426 27.3107 166.451 27.3789C166.48 27.4472 166.539 27.6078 166.587 27.7441C166.636 27.8757 166.674 28.0274 166.679 28.0713C166.679 28.1198 166.694 28.1581 166.713 28.1582C166.738 28.1591 166.782 28.2615 166.816 28.3877C166.85 28.5191 166.898 28.6994 166.927 28.792C166.957 28.8846 167.02 29.1383 167.074 29.3525L167.149 29.6787C167.171 29.7803 167.189 29.8669 167.196 29.9131C167.21 30.0055 167.239 30.127 167.263 30.1807C167.288 30.2344 167.332 30.4293 167.361 30.6191C167.39 30.8043 167.434 31.1019 167.463 31.2773C167.488 31.4529 167.531 31.867 167.555 32.2031C167.584 32.5391 167.629 32.9043 167.653 33.0166C167.682 33.1498 167.702 38.383 167.702 47.1377C167.702 56.3588 167.687 61.0271 167.653 61.0498C167.638 61.0498 167.625 61.0585 167.617 61.0723L167.579 61.2246C167.563 61.269 167.541 61.32 167.517 61.3662C167.474 61.4627 167.425 61.5357 167.41 61.5371C167.395 61.5371 167.298 61.6155 167.191 61.708C167.084 61.8004 166.957 61.8776 166.908 61.8779C166.864 61.8781 166.821 61.9075 166.811 61.9365C166.796 61.9852 166.012 62 163.097 62C159.433 62 159.402 61.9997 159.183 61.8975C159.062 61.8391 158.897 61.7371 158.819 61.6738C158.736 61.6056 158.619 61.4444 158.429 61.0742L158.405 47.2598C158.385 37.1877 158.366 33.4223 158.327 33.3242C158.298 33.256 158.254 33.0798 158.24 32.9336C158.22 32.7876 158.186 32.622 158.167 32.5684C158.142 32.5147 158.088 32.3493 158.044 32.2031C158.006 32.0573 157.967 31.8968 157.966 31.8477C157.966 31.8042 157.952 31.7654 157.928 31.7646C157.909 31.7646 157.875 31.6961 157.855 31.6084C157.836 31.5206 157.729 31.2621 157.617 31.0332C157.505 30.805 157.397 30.6155 157.373 30.6045C157.353 30.5993 157.334 30.5701 157.334 30.5459C157.333 30.5157 157.251 30.3602 157.154 30.1904C157.052 30.0249 156.915 29.8104 156.847 29.7178C156.779 29.6255 156.692 29.5089 156.653 29.46C156.614 29.4064 156.501 29.2742 156.409 29.167C156.316 29.0596 156.083 28.8158 155.898 28.626C155.708 28.4361 155.48 28.2265 155.387 28.1582C155.295 28.095 155.173 27.9981 155.12 27.9492C155.066 27.9005 154.861 27.7497 154.667 27.6182C154.477 27.4869 154.282 27.3795 154.243 27.3789C154.204 27.3788 154.17 27.3641 154.17 27.3398C154.17 27.3202 154.072 27.2614 153.951 27.208C153.83 27.1548 153.733 27.1019 153.732 27.0869C153.732 27.0723 153.62 27.0184 153.479 26.9697C153.338 26.9163 153.212 26.8625 153.197 26.8477C153.182 26.8281 153.051 26.7791 152.905 26.7354C152.759 26.6915 152.559 26.6387 152.466 26.624C152.374 26.6046 152.287 26.5751 152.272 26.5557C152.257 26.5362 152.082 26.4921 151.882 26.4531C151.683 26.419 151.376 26.3799 151.201 26.3652C151.026 26.3555 150.866 26.3261 150.836 26.3018C150.807 26.2774 150.486 26.2578 150.116 26.2578C149.709 26.2578 149.451 26.2776 149.449 26.3066C149.449 26.331 149.322 26.3554 149.167 26.3555C149.016 26.3555 148.689 26.3898 148.451 26.4336C148.213 26.4774 147.97 26.5264 147.916 26.5508C147.862 26.5751 147.74 26.6094 147.648 26.624C147.556 26.6435 147.356 26.6915 147.21 26.7354C147.064 26.7791 146.933 26.828 146.918 26.8477C146.903 26.8622 146.84 26.8965 146.772 26.916C146.704 26.9355 146.402 27.0717 146.095 27.2275C145.794 27.3784 145.507 27.535 145.462 27.5742C145.419 27.6132 145.277 27.72 145.151 27.8027C145.026 27.8894 144.915 27.9622 144.898 27.9639C144.888 27.9639 144.805 28.0373 144.712 28.1201C144.625 28.2078 144.474 28.3489 144.381 28.4316C144.294 28.5145 144.119 28.6948 143.998 28.8262C143.876 28.9575 143.735 29.1328 143.686 29.2109C143.633 29.2888 143.564 29.3818 143.54 29.416C143.51 29.4501 143.461 29.504 143.437 29.5381C143.408 29.5725 143.345 29.6598 143.292 29.7422C143.243 29.8201 143.136 30.0101 143.063 30.1562C142.985 30.3024 142.926 30.4542 142.926 30.4834C142.926 30.5172 142.911 30.5457 142.887 30.5459C142.868 30.5466 142.815 30.6394 142.761 30.751C142.713 30.8677 142.654 31.0038 142.629 31.0576C142.61 31.1112 142.561 31.2336 142.522 31.3262C142.483 31.4187 142.43 31.5745 142.401 31.667C142.367 31.7596 142.308 32.0034 142.264 32.2031C142.22 32.4029 142.167 32.7006 142.143 32.8613C142.119 33.0222 142.08 33.3288 142.055 33.543C142.026 33.7769 142.006 39.2835 142.006 47.4648C142.002 54.9045 141.982 61.0307 141.958 61.084C141.938 61.1327 141.875 61.2494 141.827 61.3418C141.778 61.4343 141.656 61.5861 141.564 61.6689C141.472 61.7565 141.339 61.8436 141.271 61.8633C141.203 61.8779 141.135 61.9171 141.116 61.9463C141.091 61.9853 140.001 62 137.348 62C134.405 62 133.611 61.9852 133.595 61.9365C133.585 61.9075 133.537 61.8781 133.484 61.8779C133.43 61.8779 133.274 61.7808 133.143 61.6592C133.007 61.5374 132.9 61.4052 132.9 61.3662C132.9 61.3277 132.885 61.2935 132.861 61.293C132.841 61.293 132.797 61.1764 132.768 61.04C132.719 60.8354 132.705 56.3233 132.705 39.4883C132.705 22.6529 132.719 18.1402 132.768 17.9355C132.797 17.7992 132.841 17.6826 132.861 17.6826C132.885 17.6821 132.9 17.6479 132.9 17.6094C132.9 17.5704 132.963 17.4774 133.045 17.3994C133.123 17.3266 133.22 17.2443 133.259 17.21C133.298 17.1759 133.382 17.1366 133.45 17.1172C133.513 17.1026 133.581 17.0682 133.6 17.0439C133.634 17.0148 137.388 17.0049 142.868 17.0146ZM193.426 17.0049C206.657 17 206.962 17.0003 207.152 17.0928C207.259 17.1416 207.43 17.263 207.527 17.3604C207.629 17.4577 207.756 17.6331 207.809 17.7549C207.906 17.9741 207.907 18.0859 207.907 39.4736C207.907 59.531 207.902 60.9913 207.824 61.1963C207.775 61.3229 207.648 61.5033 207.522 61.6201C207.396 61.7368 207.254 61.8435 207.201 61.8584C207.147 61.8778 207.09 61.9171 207.07 61.9463C207.046 61.9853 204.173 62 196.41 62C188.471 62 185.739 61.9852 185.589 61.9414C185.482 61.9122 185.185 61.8583 184.932 61.8291C184.679 61.795 184.382 61.7607 184.275 61.7461C184.168 61.7315 184.061 61.7031 184.032 61.6836C184.003 61.6593 183.871 61.6298 183.74 61.6104C183.604 61.5909 183.375 61.5419 183.229 61.5029C183.083 61.464 182.928 61.4102 182.888 61.3906C182.849 61.3712 182.742 61.3418 182.655 61.3223C182.573 61.3077 182.489 61.2695 182.474 61.2451C182.46 61.2208 182.397 61.1964 182.329 61.1963C182.261 61.1963 182.197 61.1814 182.187 61.1572C182.177 61.1378 182.09 61.1083 181.993 61.084C181.895 61.0645 181.817 61.0351 181.817 61.0107C181.817 60.9912 181.705 60.9373 181.564 60.8838C181.423 60.8351 181.165 60.7234 180.99 60.6406C180.815 60.5581 180.664 60.4799 180.649 60.4648C180.634 60.45 180.532 60.3962 180.42 60.3428C180.304 60.2894 180.212 60.2316 180.211 60.207C180.211 60.1876 180.157 60.1631 180.089 60.1484C180.021 60.1338 179.967 60.0996 179.967 60.0752C179.967 60.0509 179.904 60.0166 179.822 60.002C179.739 59.9873 179.675 59.9628 179.675 59.9385C179.675 59.9187 179.597 59.8609 179.505 59.8076C179.408 59.7541 179.335 59.6953 179.335 59.6709C179.335 59.6516 179.315 59.637 179.287 59.6367C179.257 59.6367 179.145 59.5632 179.033 59.4805C178.917 59.3934 178.82 59.3063 178.814 59.2861C178.804 59.2619 178.77 59.2472 178.741 59.2471C178.706 59.2467 178.605 59.1783 178.522 59.1006C178.436 59.019 178.354 58.9559 178.337 58.9541C178.323 58.9541 178.22 58.8669 178.108 58.7598C177.992 58.6533 177.89 58.5656 177.875 58.5645C177.86 58.5693 177.709 58.4283 177.534 58.2529C177.359 58.0826 177.183 57.8976 177.144 57.8486C177.105 57.8002 177.052 57.7465 177.023 57.7363C176.994 57.7217 176.897 57.6237 176.804 57.5117C176.712 57.4046 176.556 57.2195 176.463 57.1074C176.371 56.9906 176.253 56.8496 176.21 56.791C176.161 56.7375 176.103 56.6591 176.074 56.625C176.049 56.5958 176.025 56.5566 176.025 56.542C176.024 56.5266 175.97 56.4689 175.903 56.4062C175.84 56.3479 175.787 56.2842 175.782 56.2598C175.782 56.2401 175.733 56.152 175.674 56.0645C175.612 55.9825 175.549 55.9054 175.529 55.8945C175.505 55.8897 175.49 55.8554 175.49 55.8213C175.485 55.7921 175.397 55.6364 175.294 55.4854C175.187 55.3294 175.1 55.1777 175.1 55.1533C175.1 55.1292 175.085 55.1007 175.066 55.0908C175.054 55.0882 175.022 55.039 174.98 54.9619L174.685 54.3701C174.644 54.2934 174.614 54.2432 174.604 54.2373C174.58 54.2325 174.565 54.199 174.565 54.165C174.565 54.1358 174.491 53.9546 174.399 53.7646C174.307 53.5748 174.214 53.3553 174.195 53.2773C174.175 53.1996 174.146 53.1076 174.127 53.083C174.107 53.0587 174.044 52.8685 173.986 52.6689C173.923 52.4696 173.859 52.2602 173.835 52.2061C173.815 52.1525 173.762 51.9623 173.718 51.7773C173.675 51.597 173.64 51.4061 173.64 51.3525C173.64 51.2994 173.625 51.2514 173.601 51.2461C173.582 51.2364 173.528 51.0023 173.479 50.7197C173.435 50.4371 173.397 50.1101 173.397 49.9883C173.397 49.8671 173.377 49.7458 173.348 49.7207C173.314 49.6866 173.304 49.1993 173.319 48.3076C173.329 47.5576 173.358 46.7587 173.387 46.5293C173.412 46.3003 173.46 45.9194 173.499 45.6758C173.533 45.4323 173.577 45.2275 173.591 45.2129C173.606 45.1962 173.65 45.046 173.679 44.8721C173.713 44.6967 173.752 44.4773 173.771 44.3848C173.786 44.2928 173.815 44.2059 173.83 44.1904C173.849 44.1752 173.893 44.0579 173.927 43.9219C173.957 43.7903 174.014 43.5758 174.044 43.4443C174.078 43.318 174.117 43.2163 174.141 43.2158C174.16 43.2154 174.175 43.1764 174.175 43.1328C174.175 43.0841 174.21 42.9764 174.249 42.8984C174.292 42.8206 174.322 42.7138 174.322 42.6699C174.322 42.6214 174.341 42.5824 174.37 42.582C174.384 42.5818 174.399 42.5621 174.412 42.5312L174.474 42.291C174.487 42.2602 174.502 42.2412 174.516 42.2412C174.545 42.2409 174.565 42.1969 174.565 42.1436C174.565 42.09 174.585 42.0459 174.614 42.0459C174.643 42.0455 174.662 42.0163 174.662 41.9873C174.662 41.9526 174.745 41.758 174.842 41.5586C174.939 41.3595 175.031 41.1845 175.046 41.1689C175.061 41.1539 175.12 41.0659 175.169 40.9736C175.222 40.8819 175.275 40.7948 175.29 40.7793C175.309 40.7642 175.363 40.6713 175.417 40.5693C175.47 40.472 175.524 40.3896 175.539 40.3896C175.554 40.3923 175.592 40.3296 175.626 40.2578C175.66 40.1847 175.743 40.0525 175.811 39.9746C175.879 39.8966 175.981 39.7653 176.04 39.6924C176.098 39.6193 176.2 39.488 176.268 39.4004C176.332 39.3124 176.712 38.9277 177.101 38.5381C177.495 38.1483 177.87 37.787 177.933 37.7334C177.997 37.6798 178.128 37.5877 178.23 37.5293C178.327 37.466 178.41 37.3974 178.41 37.3682C178.41 37.3389 178.449 37.3095 178.493 37.2949C178.541 37.2851 178.624 37.2459 178.672 37.2119C178.726 37.1778 178.814 37.1102 178.868 37.0615C178.926 37.018 178.984 36.979 179.003 36.9785C179.023 36.9782 179.067 36.949 179.101 36.9199C179.14 36.8858 179.232 36.8221 179.31 36.7734C179.393 36.7295 179.598 36.6228 179.773 36.5303C179.948 36.4426 180.099 36.3593 180.114 36.3447C180.13 36.3293 180.286 36.2473 180.464 36.1602C180.649 36.0774 180.81 36.0039 180.83 36.0039C180.855 36.0033 180.922 35.9742 180.99 35.9404C181.058 35.9063 181.243 35.8377 181.404 35.7842C181.564 35.7307 181.706 35.6777 181.72 35.6631C181.736 35.6482 181.886 35.5945 182.061 35.5459C182.236 35.4972 182.421 35.4384 182.474 35.4141C182.528 35.3945 182.679 35.3505 182.815 35.3213C182.946 35.2921 183.199 35.2441 183.375 35.2197C183.55 35.1905 183.735 35.1513 183.789 35.127C183.843 35.1074 184.15 35.0535 184.47 35.0098C184.791 34.9659 185.176 34.917 185.322 34.9023C185.472 34.8877 187.982 34.8584 190.905 34.8438C195.043 34.8146 196.227 34.7955 196.283 34.752C196.312 34.7179 196.386 34.6885 196.439 34.6885C196.498 34.6883 196.629 34.6541 196.736 34.6152C196.843 34.5714 197.009 34.5028 197.101 34.4639C197.194 34.42 197.35 34.3514 197.442 34.3076C197.534 34.2638 197.646 34.1961 197.685 34.1572C197.724 34.1232 197.797 34.0694 197.84 34.0498C197.889 34.0253 197.987 33.9568 198.06 33.8984C198.133 33.8347 198.328 33.6497 198.498 33.4844C198.668 33.3142 198.804 33.1635 198.804 33.1436C198.804 33.1192 198.858 33.036 198.926 32.958C198.994 32.8802 199.062 32.7685 199.077 32.7148C199.096 32.6614 199.121 32.6075 199.14 32.5928C199.155 32.5774 199.229 32.4464 199.296 32.3008C199.369 32.1547 199.467 31.9255 199.515 31.7891C199.593 31.5796 199.608 31.394 199.608 30.4443C199.608 29.6801 199.588 29.3237 199.549 29.2744C199.52 29.2355 199.481 29.1237 199.466 29.0264C199.452 28.9244 199.417 28.8414 199.388 28.8408C199.359 28.8404 199.34 28.7965 199.34 28.7432C199.34 28.6899 199.325 28.6361 199.301 28.626C199.282 28.6162 199.248 28.5485 199.228 28.4707C199.204 28.393 199.169 28.3196 199.15 28.3047C199.13 28.2894 199.043 28.1583 198.951 28.0127C198.858 27.8666 198.62 27.5836 198.42 27.3887C198.217 27.1943 198.017 27.0243 197.977 27.0137C197.938 26.9991 197.861 26.95 197.807 26.9014C197.754 26.8527 197.593 26.7655 197.452 26.707C197.316 26.6488 197.165 26.6001 197.126 26.5996C197.087 26.5996 197.048 26.5848 197.038 26.5654C197.033 26.5411 196.872 26.4872 196.687 26.4385C196.502 26.3947 196.259 26.3556 196.152 26.3555C196.045 26.3555 195.938 26.3358 195.909 26.3066C195.875 26.2774 193.066 26.2578 187.853 26.248C180.842 26.2334 179.833 26.2243 179.729 26.1611C179.661 26.1222 179.569 26.0537 179.515 26.0146C179.462 25.9757 179.393 25.9121 179.364 25.8779C179.335 25.844 179.287 25.7909 179.257 25.7568C179.228 25.7228 179.174 25.6443 179.14 25.5762C179.106 25.508 179.052 25.3669 179.023 25.2598C178.994 25.1379 178.97 23.778 178.961 21.7266C178.946 19.5972 178.96 18.325 178.989 18.2178C179.018 18.1251 179.052 17.9645 179.067 17.8672C179.086 17.726 179.155 17.6186 179.344 17.4287C179.485 17.2875 179.666 17.1367 179.749 17.0879C179.886 17.0149 180.929 17.0098 193.426 17.0049ZM191.352 44.1611C188.583 44.1611 186.203 44.166 186.061 44.1758H186.066C185.925 44.1807 185.808 44.2149 185.808 44.2393C185.807 44.2634 185.754 44.2881 185.691 44.2881C185.627 44.2883 185.491 44.3224 185.389 44.3613C185.282 44.405 185.161 44.4336 185.112 44.4336C185.068 44.4337 185.03 44.4535 185.03 44.4824C185.03 44.5066 185 44.5311 184.966 44.5312C184.937 44.5312 184.811 44.5851 184.689 44.6436C184.567 44.702 184.451 44.7656 184.421 44.79C184.392 44.8097 184.251 44.9165 184.105 45.0332C183.959 45.1452 183.774 45.3058 183.691 45.3838C183.613 45.4667 183.442 45.6861 183.321 45.8711C183.194 46.0611 183.048 46.3098 182.995 46.4316C182.941 46.5534 182.859 46.7533 182.82 46.8799C182.776 47.0114 182.742 47.1534 182.742 47.1973C182.742 47.2459 182.717 47.3137 182.683 47.3477C182.635 47.3967 182.62 47.68 182.62 48.4639C182.62 49.2668 182.635 49.5211 182.678 49.5361C182.712 49.5411 182.742 49.599 182.742 49.6572C182.742 49.7208 182.781 49.8775 182.825 50.0137C182.873 50.1441 182.926 50.2604 182.946 50.2666C182.97 50.2765 182.985 50.3156 182.985 50.3545C182.985 50.3938 183.024 50.5005 183.068 50.583C183.117 50.6706 183.166 50.754 183.18 50.7686C183.195 50.7842 183.253 50.8671 183.311 50.9492C183.374 51.0362 183.423 51.1185 183.423 51.1338C183.424 51.1487 183.453 51.1928 183.482 51.2314C183.516 51.2753 183.569 51.3342 183.598 51.3682C183.628 51.4025 183.754 51.5142 183.88 51.6211C184.012 51.7283 184.168 51.8605 184.231 51.9141C184.294 51.9677 184.45 52.0647 184.577 52.1328C184.703 52.2009 184.82 52.2694 184.835 52.2842C184.85 52.3037 184.938 52.3331 185.03 52.3525C185.122 52.3721 185.219 52.4063 185.249 52.4258C185.279 52.4454 185.395 52.4885 185.516 52.5176C185.638 52.5517 185.92 52.6104 186.149 52.6445C186.48 52.703 187.449 52.7129 191.065 52.7178C194.297 52.7178 195.704 52.703 196.054 52.6592C196.321 52.6252 196.549 52.5859 196.565 52.5664C196.58 52.5518 196.678 52.5175 196.785 52.498C196.892 52.4785 197.013 52.4452 197.052 52.4258C197.091 52.4014 197.261 52.3328 197.431 52.2695C197.596 52.2113 197.733 52.1428 197.734 52.1182C197.734 52.0988 197.768 52.084 197.806 52.084C197.845 52.0839 197.879 52.0594 197.879 52.0352C197.88 52.0108 197.924 51.9774 197.977 51.9629C198.031 51.948 198.245 51.7669 198.449 51.5576C198.658 51.3484 198.853 51.1439 198.882 51.1045C198.911 51.0655 198.951 50.9929 198.965 50.9395C198.985 50.8859 199.033 50.7977 199.082 50.7393C199.13 50.6857 199.209 50.5691 199.253 50.4863C199.301 50.3988 199.339 50.2862 199.339 50.2324C199.339 50.179 199.359 50.1349 199.388 50.1348C199.417 50.1346 199.452 50.0522 199.466 49.9502C199.486 49.8529 199.525 49.7403 199.554 49.7012C199.588 49.6507 199.607 49.2361 199.607 48.4004C199.607 47.4729 199.593 47.1549 199.544 47.1045C199.511 47.0705 199.486 47.0117 199.486 46.9775C199.486 46.9483 199.451 46.8364 199.408 46.7344C199.364 46.637 199.296 46.4754 199.253 46.3828C199.214 46.2903 199.12 46.1247 199.052 46.0176C198.985 45.911 198.897 45.7945 198.868 45.7598C198.834 45.7307 198.805 45.6866 198.804 45.6621C198.809 45.6426 198.717 45.5397 198.61 45.4326C198.498 45.3256 198.347 45.1797 198.279 45.1113C198.206 45.0383 198.035 44.907 197.904 44.8145C197.768 44.7219 197.573 44.6191 197.465 44.5801C197.359 44.5462 197.262 44.5021 197.247 44.4873C197.231 44.4676 197.085 44.4148 196.916 44.3711C196.75 44.3273 196.57 44.2881 196.516 44.2881C196.463 44.2879 196.415 44.2584 196.405 44.2246C196.39 44.1808 195.334 44.166 191.352 44.1611ZM108.159 44.1611C105.426 44.1611 103.077 44.1661 102.941 44.1758C102.805 44.1904 102.674 44.2149 102.649 44.2344C102.624 44.2587 102.497 44.2882 102.366 44.3076C102.239 44.3223 102.127 44.3614 102.113 44.3857C102.098 44.4098 102.035 44.4335 101.967 44.4336C101.9 44.4336 101.846 44.4485 101.845 44.4678C101.844 44.4923 101.738 44.5462 101.602 44.5898C101.471 44.6386 101.33 44.7071 101.295 44.7412C101.266 44.7753 101.179 44.8381 101.101 44.8867C101.028 44.9306 100.92 45.0089 100.862 45.0527C100.803 45.1016 100.662 45.2289 100.555 45.3359C100.448 45.4431 100.312 45.5892 100.249 45.667C100.19 45.74 100.103 45.8567 100.059 45.9297C100.011 46.0076 99.9614 46.0762 99.942 46.0908C99.927 46.1063 99.879 46.1942 99.8306 46.2861C99.7869 46.3788 99.7378 46.5296 99.7281 46.6123C99.7135 46.6997 99.6889 46.7723 99.6646 46.7725C99.6451 46.7732 99.6019 46.9002 99.563 47.0508C99.529 47.2067 99.4751 47.4653 99.4507 47.626C99.4216 47.787 99.397 48.1278 99.397 48.3809C99.3922 48.6342 99.4069 48.9515 99.4263 49.0879C99.4459 49.2197 99.4998 49.492 99.5484 49.6865C99.5921 49.8807 99.645 50.0372 99.6646 50.0381C99.6889 50.0383 99.7135 50.1107 99.7281 50.1934C99.7379 50.2811 99.7869 50.4329 99.8355 50.5254C99.8793 50.6177 99.947 50.7246 99.981 50.7539C100.015 50.788 100.044 50.8321 100.044 50.8516C100.045 50.8764 100.099 50.9539 100.167 51.0361C100.234 51.1139 100.287 51.1972 100.288 51.2168C100.289 51.2422 100.425 51.3879 100.589 51.5479C100.759 51.7131 100.91 51.8451 100.93 51.8408C100.955 51.841 101.023 51.8899 101.086 51.9482C101.15 52.0116 101.286 52.1038 101.388 52.1572C101.49 52.2108 101.583 52.2696 101.587 52.2891C101.597 52.3131 101.632 52.3281 101.661 52.3281C101.696 52.3284 101.88 52.3724 102.064 52.4307C102.249 52.4891 102.449 52.5518 102.503 52.5762C102.556 52.5957 102.697 52.6299 102.819 52.6494C102.942 52.664 105.122 52.6885 107.662 52.7031C110.981 52.7177 112.423 52.7079 112.773 52.6689C113.04 52.6397 113.293 52.5957 113.333 52.5762C113.372 52.5518 113.498 52.5224 113.61 52.5029C113.726 52.4884 113.827 52.4502 113.843 52.4258C113.858 52.3965 113.907 52.377 113.951 52.377C114 52.3768 114.136 52.323 114.257 52.2646C114.379 52.2064 114.48 52.1428 114.486 52.1182C114.491 52.1084 114.503 52.0999 114.519 52.0938L114.601 52.0791C114.627 52.0712 114.647 52.0534 114.647 52.0352C114.647 52.0062 114.681 51.9865 114.719 51.9863C114.758 51.9862 114.895 51.894 115.021 51.7773C115.142 51.6656 115.293 51.5295 115.347 51.4707C115.406 51.4123 115.499 51.3094 115.557 51.2363C115.62 51.1682 115.708 51.0515 115.752 50.9736C115.8 50.9006 115.864 50.8125 115.898 50.7783C115.932 50.7491 115.96 50.6854 115.961 50.6465C115.961 50.6073 116 50.5005 116.044 50.418C116.092 50.3305 116.141 50.2474 116.156 50.2324C116.171 50.217 116.214 50.0956 116.248 49.9648C116.286 49.8288 116.326 49.6436 116.34 49.5508C116.35 49.4583 116.389 49.3653 116.419 49.3457C116.453 49.3211 116.472 49.0187 116.472 48.4004C116.472 47.7143 116.457 47.4849 116.409 47.4697C116.38 47.46 116.35 47.3962 116.35 47.3184C116.35 47.2452 116.321 47.0894 116.277 46.9678C116.238 46.8465 116.185 46.7054 116.161 46.6514C116.136 46.5978 116.068 46.4362 116.004 46.2949C115.942 46.1593 115.874 46.043 115.849 46.042C115.83 46.042 115.805 46.0027 115.791 45.9541C115.781 45.9103 115.742 45.828 115.708 45.7793C115.674 45.7257 115.474 45.5111 115.265 45.3018C115.061 45.0925 114.876 44.9214 114.851 44.9209C114.832 44.9209 114.773 44.8826 114.719 44.834C114.666 44.7853 114.511 44.6971 114.379 44.6338C114.244 44.5755 114.093 44.5021 114.039 44.4824C113.985 44.4581 113.829 44.4052 113.698 44.3662C113.562 44.3224 113.411 44.2882 113.357 44.2881C113.304 44.2881 113.23 44.2635 113.196 44.2295C113.146 44.1809 112.098 44.166 108.159 44.1611Z" fill="#010101"/>
</g>
</svg>
