<svg width="28" height="20" viewBox="0 0 28 20" fill="none" xmlns="http://www.w3.org/2000/svg">
<path d="M0.422646 19.8676C0.49183 19.8995 0.614232 19.9474 0.704703 19.9687C0.789853 19.99 2.16289 20.006 6.6279 19.99L6.8461 19.8303C6.96318 19.7451 8.91097 17.6098 11.1674 15.0911C13.4292 12.5724 15.3131 10.4318 15.3504 10.3412C15.3876 10.2454 15.4196 10.0856 15.4196 9.99512C15.4196 9.89927 15.3664 9.71823 15.3025 9.59575C15.2333 9.47328 13.3281 7.31668 11.0716 4.80331C8.80986 2.28994 6.87803 0.186586 6.78756 0.128014C6.61726 0.0268383 6.5055 0.0215149 3.87119 0.00553894C2.36512 -0.00510979 1.00805 0.00021553 0.864358 0.0161896C0.715347 0.0321655 0.513117 0.101389 0.412003 0.170612C0.310888 0.234512 0.17252 0.39426 0.103336 0.527384C0.00754316 0.713757 -0.0137442 0.820255 0.00754316 1.00663C0.0235087 1.13975 0.0926925 1.33145 0.167198 1.43262C0.236382 1.5338 1.98726 3.4987 4.05746 5.79907C6.12233 8.09944 7.81467 9.9898 7.81467 10.0058C7.81467 10.0217 6.12233 11.9121 4.05746 14.2125C1.98726 16.5128 0.23106 18.4884 0.156554 18.6002C0.044796 18.7653 0.012865 18.8718 0.012865 19.1114C0.012865 19.3564 0.0394742 19.4469 0.156554 19.6066C0.241704 19.7131 0.358784 19.8303 0.422646 19.8676Z" fill="#14110E"/>
<path d="M12.0243 19.6599C12.1201 19.7717 12.2957 19.8942 12.4128 19.9368C12.5884 20.0007 13.1259 20.0113 18.4371 19.99L18.6233 19.8569C18.7244 19.7824 20.6722 17.6524 22.95 15.1177C25.2277 12.583 27.1223 10.4318 27.1649 10.3412C27.2021 10.2454 27.2341 10.0963 27.2341 10.0058C27.2341 9.92057 27.2021 9.76615 27.1649 9.67563C27.1223 9.57978 25.2277 7.4285 22.95 4.89383C20.6722 2.35916 18.7244 0.229187 18.4371 0.0215149H15.4515C12.7108 0.0215149 12.45 0.0268402 12.2957 0.117365C12.1999 0.165289 12.0562 0.298412 11.9764 0.404911C11.8486 0.569984 11.8274 0.649857 11.8274 0.926754C11.8274 1.19833 11.8486 1.28353 11.9657 1.43795C12.0455 1.53912 13.7964 3.4987 15.8666 5.79907C17.9368 8.09945 19.6292 9.9898 19.6292 10.0058C19.6292 10.0217 18.0539 11.779 16.1327 13.9196C14.2062 16.0602 12.4607 18.0092 12.2425 18.2594C11.9391 18.6109 11.8433 18.76 11.822 18.925C11.8061 19.0422 11.8061 19.2073 11.822 19.2978C11.838 19.3883 11.9285 19.5481 12.0243 19.6599Z" fill="#14110E"/>
</svg>
